<svg
                  xmlns="http://www.w3.org/2000/svg"
                  viewBox="0 0 24 24"
                  fill="#111111"

                  className="w-8 h-8 text-background"
                >
                  <path
                    fillRule="evenodd"
                    d="M12 2C6.477 2 2 6.484 2 12.012c0 4.425 2.865 8.18 6.839 9.504.5.092.682-.217.682-.483 
      0-.237-.009-.868-.014-1.703-2.782.604-3.369-1.343-3.369-1.343-.454-1.155-1.11-1.463-1.11-1.463-.909-.621.069-.609.069-.609 
      1.004.07 1.532 1.032 1.532 1.032.893 1.53 2.341 1.088 2.91.833.092-.647.35-1.088.636-1.338-2.22-.252-4.555-1.112-4.555-4.949 
      0-1.093.39-1.988 1.029-2.688-.103-.253-.446-1.27.098-2.648 0 0 .84-.27 2.75 1.026A9.564 9.564 0 0112 6.844c.851.004 
      1.705.115 2.504.337 1.909-1.296 2.748-1.026 2.748-1.026.545 1.379.202 2.396.099 2.648.64.7 1.028 1.595 1.028 2.688 
      0 3.847-2.338 4.694-4.566 4.943.36.31.682.92.682 1.855 
      0 1.338-.012 2.419-.012 2.748 0 .268.18.58.688.481A10.013 10.013 0 0022 12.012C22 6.484 17.523 2 12 2z"
                    clipRule="evenodd"
                  />
                </svg>